<svg id="Layer_1" data-name="Layer 1" xmlns="http://www.w3.org/2000/svg" viewBox="0 0 148.16 42.14"><defs><style>.cls-1{fill:#fff27b;stroke:#323232;stroke-miterlimit:10;stroke-width:0.5px;}</style></defs><path class="cls-1" d="M26.74,6.34v5.43a40.59,40.59,0,0,0-9.85-1.44c-8.12,0-12,4.3-12,9.45,0,2.15.82,4.77,3.24,7.85,3.25,4.07,7,5.86,11.21,5.86a14.42,14.42,0,0,0,7.39-2l-.16,8.13,6.21,1.79.55-.39L33.18,6.34h10.2l-.16,33.21,6.29,1.83.55-.39L49.9,6.34H90.06V12H70.72l-.55.66,2.47,5.59c4.68.62,6.87,1.91,6.87,4.14a6.2,6.2,0,0,1-6.25,5.86c-5,0-9.45-4.77-13.59-15.24l-3.6,1.8c5.82,14.45,12.39,20.78,19.57,20.78,5.9,0,9.18-4.29,9.18-8.36,0-2.77-.78-5-2.85-8.59h8.09l-.16,21,6.21,1.79.55-.39L96.5,6.34h10.2l-.16,33.21,6.29,1.83.55-.39-.16-34.65H132a11.73,11.73,0,0,1,.31,3c0,2.89-.58,4.65-1.44,5.78-1.21-.11-3-.15-4.85-.15a4,4,0,0,0-3.67,1.64,4.25,4.25,0,0,0-.66,2.19,10.33,10.33,0,0,0,1.48,4c3.71,6.87,10,13.16,17.93,19.1h.59l3-6.64c-6.06-2.89-11.18-6.05-14.42-9.57,5-2.77,8.52-6.72,8.52-14.53a25.52,25.52,0,0,0-.43-4.81h9l.55-.74L145.21.25H.84L.29,1,3,6.34ZM17.13,27.4c-4.06,0-6.06-2-6.06-4.14a6.26,6.26,0,0,1,3.36-5.51l6.25,9.18A13.51,13.51,0,0,1,17.13,27.4Zm9.69-6.6c0,1.83-.71,3.28-3,4.76l-6-9A18.78,18.78,0,0,1,21,16.3a26.78,26.78,0,0,1,5.86.63Z"/></svg>